<svg xmlns="http://www.w3.org/2000/svg" viewBox="0 0 640 400" role="img" aria-label="Quiz application concept">
  <defs>
    <linearGradient id="bg" x1="0" y1="0" x2="1" y2="1"><stop offset="0" stop-color="#1b5a55"/><stop offset="1" stop-color="#0a1122"/></linearGradient>
    <linearGradient id="ac" x1="0" y1="0" x2="1" y2="0"><stop offset="0" stop-color="#22d3ee"/><stop offset="1" stop-color="#3b6cf5"/></linearGradient>
  </defs>
  <rect width="640" height="400" fill="url(#bg)"/>
  <rect x="40" y="36" width="560" height="328" rx="16" fill="#0d1731" stroke="#2a3a66"/>
  <circle cx="66" cy="60" r="5" fill="#f87171"/><circle cx="84" cy="60" r="5" fill="#fbbf24"/><circle cx="102" cy="60" r="5" fill="#34d399"/>
  <rect x="120" y="94" width="400" height="10" rx="5" fill="#1b2a55"/><rect x="120" y="94" width="180" height="10" rx="5" fill="url(#ac)"/>
  <rect x="120" y="128" width="400" height="60" rx="14" fill="#14224a" stroke="#2a3a66"/>
  <rect x="142" y="148" width="300" height="12" rx="6" fill="#e8edf7" opacity=".88"/><rect x="142" y="168" width="180" height="9" rx="4" fill="#41527f"/>
  <rect x="120" y="204" width="400" height="34" rx="12" fill="#101c3d" stroke="#2a3a66"/><rect x="140" y="217" width="140" height="8" rx="4" fill="#9aa8c4"/>
  <rect x="120" y="248" width="400" height="34" rx="12" fill="#12332f" stroke="#34d399"/><rect x="140" y="261" width="170" height="8" rx="4" fill="#a7f3d0"/>
  <rect x="120" y="292" width="400" height="34" rx="12" fill="#101c3d" stroke="#2a3a66"/><rect x="140" y="305" width="120" height="8" rx="4" fill="#9aa8c4"/>
</svg>
